<svg height="64" viewBox="0 0 517 258" fill="none" xmlns="http://www.w3.org/2000/svg">
<g clip-path="url(#clip0_1959_224)">
<path
      d="M219.554 108.902C226.027 107.978 232.658 110.603 237.994 114.024L238.463 109.29C241.52 109.169 245.104 109.236 248.206 109.211L248.233 142.927C248.237 154.29 249.882 169.285 241.798 178.188C236.584 183.93 228.769 184.86 221.514 185.1C221.709 182.685 221.609 178.19 221.654 175.575C223.237 175.471 224.816 175.319 226.39 175.118C237.281 173.117 237.913 165.506 237.988 156.301C227.237 162.984 215.17 163.842 204.825 155.706C199.473 151.49 196.016 145.321 195.213 138.556C193.29 122.474 203.817 110.713 219.554 108.902ZM224.007 151.593C233.132 150.282 239.452 141.803 238.102 132.684C236.752 123.564 228.246 117.28 219.133 118.669C210.074 120.05 203.836 128.494 205.178 137.558C206.52 146.623 214.937 152.897 224.007 151.593Z"
      fill="#070707"
    />
<path
      d="M80.1351 199.766C80.3247 199.743 80.5148 199.723 80.7052 199.707C90.2182 198.871 95.0786 201.528 101.985 207.302C101.186 204.516 100.923 203.571 100.907 200.667C104.264 200.557 108.094 200.636 111.489 200.625C111.126 205.147 111.391 213.595 111.391 218.468L111.393 253.595C108.353 253.357 103.8 253.394 100.747 253.561C100.812 252.268 101.681 248.755 101.074 248.071C100.156 248.219 99.2021 249.267 98.4711 249.929C90.4896 256.379 78.0403 256.271 69.7362 250.428C63.765 246.237 59.7227 239.828 58.5136 232.634C55.8847 217.243 64.2038 202.493 80.1351 199.766ZM86.9074 244.778C108.955 241.088 104.479 207.382 83.4067 209.611C61.524 212.58 64.9974 246.998 86.9074 244.778Z"
      fill="#070707"
    />
<path
      d="M361.763 108.667C376.392 107.133 389.487 117.767 390.99 132.399C392.492 147.032 381.83 160.105 367.194 161.575C352.604 163.041 339.58 152.419 338.082 137.831C336.585 123.243 347.179 110.196 361.763 108.667ZM367.135 151.543C376.222 150.107 382.416 141.567 380.961 132.483C379.505 123.4 370.953 117.223 361.873 118.698C352.819 120.168 346.665 128.69 348.116 137.746C349.567 146.803 358.076 152.975 367.135 151.543Z"
      fill="#070707"
    />
<path
      d="M301.762 108.658C316.419 107.179 329.486 117.899 330.898 132.564C332.31 147.228 321.529 160.245 306.859 161.59C292.283 162.926 279.369 152.23 277.966 137.661C276.563 123.091 287.199 110.127 301.762 108.658ZM306.913 151.557C316.016 150.191 322.277 141.691 320.884 132.592C319.491 123.494 310.973 117.257 301.879 118.677C292.822 120.091 286.617 128.566 288.005 137.627C289.392 146.688 297.849 152.918 306.913 151.557Z"
      fill="#070707"
    />
<path
      d="M451.192 152.145C451.257 151.028 451.449 151.036 450.938 150.303C449.892 150.604 448.793 152.419 447.94 153.243C435.19 165.57 414.448 158.87 409.805 142.025C404.731 123.618 418.853 105.217 438.408 109.884C444.137 111.251 447.997 114.938 451.416 119.51C451.049 116.151 451.11 113.503 451.228 110.127C453.393 110.288 455.407 110.232 457.57 110.196C457.348 120.797 457.737 131.699 457.57 142.32C457.501 146.732 457.772 152.766 457.428 157.063C456.461 156.952 453.292 157.12 452.205 157.156C452.197 155.735 452.572 152.456 451.852 151.455L451.192 152.145ZM435.531 152.996C445.87 151.769 453.236 142.362 451.947 132.03C450.658 121.698 441.206 114.389 430.882 115.742C420.647 117.082 413.415 126.436 414.693 136.679C415.971 146.922 425.28 154.212 435.531 152.996Z"
      fill="#070707"
      fill-opacity="0.65"
    />
<path
      d="M63.7348 110.367C77.4048 108.815 89.7554 118.612 91.356 132.277C92.9566 145.941 83.2042 158.327 69.5455 159.976C55.8181 161.633 43.3569 151.821 41.7482 138.087C40.1396 124.354 49.9959 111.927 63.7348 110.367ZM68.6461 154.754C79.4117 153.599 87.2256 143.969 86.1393 133.196C85.0531 122.423 75.4742 114.547 64.6946 115.564C53.8166 116.591 45.8533 126.276 46.9494 137.148C48.0456 148.019 57.7821 155.92 68.6461 154.754Z"
      fill="#070707"
      fill-opacity="0.65"
    />
<path
      d="M5.40834 10.8523C5.54915 10.9146 10.1949 10.9211 10.9933 10.9697L11.6488 10.3555C11.3649 13.2489 11.4979 29.1161 11.7953 31.8376L12.0409 32.0553C18.1069 27.2896 20.9736 25.046 29.4298 26.0691C34.5044 26.7019 39.1122 29.3465 42.2184 33.409C49.2715 42.5145 47.7209 57.9441 38.3771 64.8585C33.9914 68.104 28.7436 69.0553 23.3601 68.3304C17.9485 67.575 15.6757 65.5166 11.848 61.9655C11.6078 64.0268 11.4264 65.877 11.541 67.9592C9.29108 67.8568 7.71144 67.8358 5.46586 67.9423C5.70665 55.5357 5.3624 42.0367 5.40158 29.5282L5.50143 17.2389C5.51344 15.9491 5.61654 11.9848 5.40834 10.8523ZM28.399 62.9106C29.4344 62.6353 30.6009 62.3461 31.5893 61.9338C43.0329 57.1609 43.372 38.9831 32.8727 33.0455C30.3298 31.6074 26.6049 30.9134 23.6965 31.3551C19.7498 32.1284 16.1433 33.7771 14.0326 37.3349C7.17525 48.8934 13.2944 64.9077 28.399 62.9106Z"
      fill="#070707"
      fill-opacity="0.65"
    />
<path
      d="M319.142 177.843C322.474 177.678 325.819 177.76 329.156 177.801C329.037 186.734 329.336 195.831 329.132 204.779C329.087 206.747 328.494 207.503 328.379 209.013L328.667 209.327C329.406 209.18 330.021 208.474 330.545 207.935C337.598 200.675 350.988 200.837 358.495 207.493C366.429 214.672 365.262 225.325 365.397 234.923C365.499 242.082 365.113 249.434 365.433 256.476C361.873 256.365 358.445 256.424 354.884 256.477C354.785 247.72 354.875 238.801 354.879 230.03C354.772 221.42 353.314 212.774 342.555 212.669C327.722 212.524 329.16 227.507 329.153 237.858L329.164 256.48C325.615 256.358 322.064 256.36 318.516 256.487C318.802 249.816 318.62 242.013 318.618 235.271L318.603 197.893C318.598 191.702 318.58 185.412 318.607 179.211C318.61 178.296 318.622 178.31 319.142 177.843Z"
      fill="#070707"
    />
<path
      d="M423.08 32.9354C428.047 28.0913 431.018 25.862 438.185 25.8969C465.196 26.0283 464.647 68.9711 437.81 68.5547C431.366 68.4547 427.776 66.1366 423.167 61.8333C423.104 68.8909 423.261 76.364 423.063 83.3491L422.444 83.6931C420.875 82.8052 418.799 83.208 417.174 83.6487C417.397 78.5107 417.126 72.6129 417.177 67.377C417.309 53.8075 416.948 40.0069 417.229 26.4494C419.234 26.5182 421.128 26.4923 423.135 26.461L423.08 32.9354ZM438.195 63.1079C442.583 62.4732 446.277 61.1688 448.942 57.3818C456.183 47.0926 450.623 30.9644 436.669 31.1481C427.904 32.4942 423.404 37.553 422.891 46.3727C422.356 55.5676 428.346 63.4873 438.195 63.1079Z"
      fill="#070707"
      fill-opacity="0.65"
    />
<path
      d="M5.11858 182.492C7.90999 182.738 12.6398 182.576 15.4869 182.512C15.1322 190.126 16.2375 198.658 14.7684 206.036L15.0262 206.305C16.237 206.038 17.2106 204.564 18.222 203.778C29.4994 195.011 47.8235 200.273 50.7682 214.942C52.0916 221.535 51.735 227.075 51.7288 233.576L51.7168 253.546C48.7924 253.4 44.0422 253.338 41.1743 253.586C41.4483 245.272 41.2019 235.62 41.1956 227.202C41.115 218.553 39.7314 209.756 28.7879 209.724C13.8888 209.681 15.4402 225.138 15.4449 235.54L15.4458 253.563C12.8372 253.449 7.56722 253.328 5.0397 253.677C4.79882 232.554 5.12785 211.382 4.97396 190.255C4.95537 187.703 4.94062 185.034 5.11858 182.492Z"
      fill="#070707"
    />
<path
      d="M246.049 26.3183C257.555 24.4418 268.412 32.2207 270.335 43.7185C272.258 55.2162 264.523 66.1049 253.034 68.0747C241.478 70.0558 230.513 62.2668 228.579 50.7029C226.645 39.139 234.478 28.2056 246.049 26.3183ZM251.786 62.9262C270.691 59.5319 266.116 28.2359 247.375 31.3543C244.632 31.961 242.194 32.6991 240.138 34.6845C229.849 44.6195 235.553 65.2327 251.786 62.9262Z"
      fill="#070707"
      fill-opacity="0.65"
    />
<path
      d="M454.322 202.571C454.599 202.554 454.877 202.545 455.154 202.544C470.112 202.441 477.096 212.071 477.092 226.476C477.09 230.132 477.115 233.954 477.11 237.625L477.072 256.491C473.586 256.334 469.915 256.391 466.429 256.484C466.633 252.985 466.633 246.842 466.542 243.146C466.169 235.814 467.508 227.39 465.249 220.351C462.597 212.085 454.288 211.52 447.392 214.014C438.27 220.09 441.008 232.188 440.617 241.641C440.426 246.247 440.522 251.934 440.605 256.557C437.585 256.204 433.104 256.383 430.03 256.49L430.032 203.581C432.745 203.804 437.857 203.639 440.699 203.621C440.497 206.177 440.171 207.594 439.601 210.069C445.198 205.401 446.282 203.261 454.322 202.571Z"
      fill="#070707"
    />
<path
      d="M173.553 186.931C177.009 186.835 180.741 186.922 184.22 186.947C183.971 190.007 184.16 195.589 184.162 198.884C184.193 207.069 184.176 215.254 184.111 223.439C186.871 223.261 190.367 223.533 193.473 223.389C193.368 220.188 193.609 217.057 193.427 213.728C196.709 213.555 200.727 213.621 204.066 213.589C203.956 210.543 203.976 207.249 203.94 204.183C207.467 204.196 210.994 204.156 214.52 204.065C214.477 207.593 214.375 211.351 214.487 214.857C210.851 214.449 207.475 215.006 204 214.615C203.968 217.855 203.976 221.095 204.025 224.335C200.491 224.139 196.842 224.559 193.397 224.166L193.505 233.844C194.494 234.05 202.339 233.948 203.857 233.944C203.574 236.469 203.726 242.04 203.774 244.724C200.368 244.498 196.596 244.339 193.195 244.604C193.411 241.401 193.277 237.598 193.234 234.333C190.576 233.997 186.942 234.076 184.198 234.057L184.144 254.064C180.798 253.815 175.644 253.861 172.273 254.009L172.247 210.827C172.252 203.09 172.094 195.177 172.251 187.469C172.707 186.916 172.701 187.069 173.553 186.931Z"
      fill="#070707"
    />
<path
      d="M141.572 199.787C144.846 199.386 148.165 199.543 151.387 200.251C159.203 202.029 163.781 205.998 167.95 212.587C165.934 214.124 161.818 216.508 159.512 217.922C153.942 208.791 142.639 206.43 134.354 213.653C123.453 223.157 129.069 244.755 144.732 244.854C150.087 244.889 153.363 243.463 157.294 239.828L159.956 236.589C162.427 237.984 165.592 240.094 168.089 241.626C165.578 247.888 157.063 252.981 150.66 254.233C136.141 257.268 121.037 247.531 118.644 232.651C115.97 216.027 125.045 202.75 141.572 199.787Z"
      fill="#070707"
    />
<path
      d="M385.494 26.0722C398.168 24.817 407.772 31.4567 409.17 44.7134C409.344 46.3615 409.257 48.1224 409.229 49.784C406.181 49.3938 376.328 49.2364 375.138 49.9622C374.89 50.1137 374.84 50.2212 374.781 50.5024C374.402 52.3026 376.463 56.0245 377.537 57.4684C379.836 60.5581 383.227 62.4272 387.023 62.9535C391.096 63.5185 394.759 62.6262 398.036 60.1286C399.326 58.9556 400.465 57.5794 401.609 56.2611L408.132 56.2302C407.553 57.0874 407.153 58.0324 406.628 58.926C403.835 63.6736 399.465 67.2555 393.913 68.1336C387.978 69.0723 381.986 68.5301 376.933 65.0262C367.065 58.1835 365.655 43.4141 372.244 33.8678C375.472 29.2142 379.999 27.0404 385.494 26.0722ZM374.445 44.0003L391.158 44.0134C394.95 44.0203 399.302 44.124 403.048 43.9467C400.808 35.9355 395.985 30.0513 386.835 31.3548C379.413 32.7758 376.096 36.9177 374.445 44.0003ZM401.479 44.8242L401.647 44.5696C400.262 44.1214 378.158 44.2501 375.209 44.309L375.051 44.6337C375.982 45.2771 398.887 45.0477 401.479 44.8242Z"
      fill="#070707"
      fill-opacity="0.65"
    />
<path
      d="M375.209 44.3094C378.158 44.2505 400.262 44.1218 401.647 44.57L401.479 44.8246C398.887 45.0481 375.982 45.2775 375.051 44.6341L375.209 44.3094Z"
      fill="#070707"
      fill-opacity="0.65"
    />
<path
      d="M69.099 26.2229C80.7494 24.089 91.0407 30.949 93.0651 42.6417C93.4901 45.0962 93.4481 47.3268 93.4229 49.8022C90.5499 49.3659 61.2666 49.3536 59.2754 49.9592C58.8632 50.6314 58.892 51.2715 59.0846 52.0261C61.1642 60.1736 68.9604 64.5484 77.027 62.7219C81.3167 61.7506 82.9008 58.8427 86.1427 56.4006C86.4161 56.1971 87.5912 56.2597 88.0118 56.2782L86.9338 56.6753C87.9988 57.2528 90.1509 56.8935 91.5595 57.2909C91.2543 58.0575 90.8882 58.7984 90.4648 59.5065C88.0322 63.6372 84.0621 66.6357 79.4236 67.8457C67.8383 70.8547 56.0052 64.9961 53.0045 53.0651C51.4974 46.9552 52.4489 40.4979 55.6545 35.0825C57.3929 32.2112 61.4436 28.1666 64.7702 27.3481C64.6594 27.3289 74.2377 26.8728 74.6281 26.835C72.8322 26.6843 70.6324 26.2351 69.099 26.2229ZM58.6625 44.0593C63.7001 43.987 68.7384 43.9734 73.7763 44.0187C77.9761 44.0276 83.0014 44.1588 87.1322 43.9214C85.289 35.9369 81.1673 31.8208 72.7066 31.1352C64.1955 32.3363 60.5836 35.8626 58.6625 44.0593ZM85.2066 44.8254L85.527 44.5712C83.9461 44.204 78.5328 44.3143 76.6791 44.3158C71.0822 44.3466 65.4852 44.3372 59.8885 44.2875L59.3604 44.5877C60.392 45.2538 82.8169 44.9981 85.2066 44.8254Z"
      fill="#070707"
      fill-opacity="0.65"
    />
<path
      d="M59.8885 44.2871C65.4852 44.3368 71.0822 44.3462 76.6791 44.3154C78.5328 44.3139 83.946 44.2036 85.5269 44.5708L85.2066 44.825C82.8169 44.9977 60.392 45.2534 59.3604 44.5873L59.8885 44.2871Z"
      fill="#070707"
      fill-opacity="0.65"
    />
<path
      d="M290.905 186.064L301.497 185.918C301.24 191.415 301.395 197.955 301.223 203.842C301.758 204.201 303.253 203.665 304.292 203.663C307.665 203.657 311.038 203.668 314.409 203.614C314.25 206.512 314.279 210.56 314.379 213.452C311.527 213.14 304.992 213.256 301.53 213.084C301.328 214.154 301.454 223.991 301.455 225.598L301.417 255.962C300.923 256.697 292.553 256.435 290.964 256.475C291.122 246.983 290.87 237.317 290.979 227.811C291.034 223.026 290.821 217.792 291.212 213.057C287.188 213.535 283.75 213.207 279.792 213.509C279.949 210.213 279.895 206.878 279.879 203.576C283.796 203.57 287.008 203.715 290.9 203.855L291.09 203.649C290.64 198.499 291.16 191.556 290.905 186.064Z"
      fill="#070707"
    />
<path
      d="M258.487 85.0902C261.936 84.9537 265.239 84.996 268.69 85.0308C268.476 90.9785 268.688 98.5181 268.69 104.581L268.7 143.502C268.701 146.28 268.998 158.727 268.49 160.334C265.363 160.14 261.561 160.276 258.295 160.172C258.526 157.337 258.438 153.472 258.44 150.565L258.446 135.022L258.487 85.0902Z"
      fill="#070707"
    />
<path
      d="M165.294 110.707C165.384 110.716 165.759 110.909 165.868 110.961C166.116 111.642 166.099 115.268 166.146 116.321C162.493 116.024 150.035 116.052 146.504 116.411C145.736 120.204 145.413 125.557 144.895 129.605C145.727 129.25 146.568 128.915 147.415 128.599C151.206 127.211 155.863 127.19 159.533 128.946C162.788 130.51 165.282 133.311 166.459 136.726C169.275 144.665 167.186 156.347 158.028 159.094C150.405 161.381 140.775 159.215 137.938 150.877C137.478 149.489 137.292 147.912 137.066 146.458C138.814 146.764 140.85 146.631 142.646 146.576C143.158 148.532 143.582 149.899 144.762 151.635C147.189 155.492 154.322 156.056 157.65 153.311C164.15 147.95 162.239 134.058 152.878 133.029C149.033 132.607 146.605 133.811 143.733 136.001C142.181 135.799 140.327 135.26 138.777 134.857C139.847 128.445 140.589 117.616 141.267 110.844C149.129 110.573 157.37 110.785 165.294 110.707Z"
      fill="#070707"
      fill-opacity="0.65"
    />
<path
      d="M104.604 55.2737C107.18 63.7414 114.304 64.5027 121.743 62.6824C127.447 61.2867 129.462 54.8421 123.704 51.8883C116.538 48.2116 103.538 49.6393 99.8176 40.9966C97.7302 35.2594 101.647 28.3477 107.69 26.9162C113.472 25.5463 119.887 25.1925 125.385 27.9743C129.549 30.1761 129.924 32.3706 131.742 36.0069C130.45 36.3169 128.162 35.8992 125.525 36.2987C124.056 33.5171 123.037 32.6478 120.197 31.604C115.895 30.0229 103.955 30.8487 105.654 37.8643C107.469 45.358 124.716 43.3915 129.945 48.7052C132.984 51.014 133.825 55.6821 132.874 59.4141C130.446 68.9386 116.073 69.942 108.363 67.3661C102.055 65.2588 99.7568 61.3858 98.2939 55.2562C100.237 55.2437 102.706 55.1624 104.604 55.2737Z"
      fill="#070707"
      fill-opacity="0.65"
    />
<path
      d="M284.589 32.318L284.793 32.1785C285.552 31.6565 286.519 30.9067 287.17 30.2573C294.035 23.4113 306.375 24.7639 311.876 32.7385C313.156 34.6087 314.028 36.7276 314.434 38.9572C314.898 41.3874 314.837 43.6302 314.843 46.0871C314.859 53.3429 314.647 60.6276 314.737 67.88C313.42 67.8197 311 67.7143 309.704 67.9092C309.812 67.7697 309.939 67.6039 310.086 67.4119C309.982 61.8014 310.294 49.011 309.799 44.2435C308.43 45.6122 309.867 63.9432 309.084 67.4891C308.861 61.7229 309.437 44.2824 308.282 39.9819C307.693 37.7079 306.459 35.6526 304.73 34.0629C299.958 29.7312 292.004 30.5478 287.818 35.313C286.331 37.0294 285.314 39.1019 284.866 41.3285C284.336 43.8747 284.499 48.8054 284.502 51.6289C284.55 57.0768 284.525 62.5251 284.428 67.9724C282.187 67.7937 280.767 67.8292 278.507 67.9218C278.668 63.1001 278.43 57.1058 278.42 52.1326L278.484 26.5071L284.589 26.5241C284.531 28.455 284.531 30.3872 284.589 32.318Z"
      fill="#070707"
      fill-opacity="0.65"
    />
<path
      d="M361.964 57.3591C360.528 60.8651 356.99 64.4349 353.677 66.1162C343.834 71.1112 330.778 68.5143 325.553 58.2502C320.347 48.0237 323.032 33.4659 333.686 28.0422C340.722 24.4602 351.473 25.2584 357.322 30.8253C360.219 33.5268 361.324 35.8599 363.109 39.3058C360.875 39.2586 358.64 39.2425 356.405 39.2574C355.181 37.226 354.16 35.6542 352.33 34.1231C349.733 31.9581 346.376 30.9248 343.011 31.2546C328.36 32.7595 324.477 51.6286 334.961 60.0355C337.965 62.4374 341.813 63.5218 345.629 63.0419C351.138 62.3716 353.256 59.5884 356.429 55.5823C357.675 56.0883 358.363 56.3278 359.732 56.1591C361.233 55.9742 361.281 56.1307 361.964 57.3591Z"
      fill="#070707"
      fill-opacity="0.65"
    />
<path
      d="M4.98242 125.055C5.55529 120.46 6.50793 116.277 10.3878 113.246C14.2436 110.233 19.4774 109.79 24.1759 110.401C27.6614 110.854 30.9451 112.429 33.1158 115.265C35.1382 117.908 35.8442 121.467 35.3761 124.723C33.7532 136.012 14.4602 150.697 14.1729 154.023C15.4108 154.658 35.1102 154.424 37.7046 154.328C37.6522 155.649 37.5394 157.283 37.6296 158.576C36.8944 158.059 33.3829 158.132 32.8264 158.659C33.66 158.741 34.7113 158.795 35.4761 159.08C26.5918 159.377 17.658 159.081 8.76679 159.259C8.04952 159.274 7.21522 159.286 6.51317 159.392C6.96387 159.097 7.20918 158.947 7.60603 158.587C6.37377 156.409 7.71515 155.604 6.68935 154.256L6.82204 154.069C11.7111 147.254 25.3884 135.328 28.6093 128.002C29.4088 126.182 29.675 124.172 29.3769 122.207C27.8575 112.773 12.1049 111.32 10.9987 124.938C8.56133 124.868 7.36226 124.864 4.98242 125.055Z"
      fill="#070707"
      fill-opacity="0.65"
    />
<path
      d="M97.5593 119.435C100.729 107.785 120.758 107.238 125.478 116.717C132.493 130.805 111.979 144.496 104.909 154.208C108.886 154.505 113.478 154.421 117.52 154.418C121.226 154.415 125.567 154.52 129.228 154.302C129.191 155.199 129.081 156.742 129.143 157.588L128.928 157.694C127.873 158.207 127.399 158.271 126.243 158.473L126.209 158.665C127.076 158.885 127.707 159.011 128.59 159.154C118.84 159.504 107.2 159.247 97.3141 159.229C97.3551 157.876 97.4125 156.523 97.4863 155.171C98.6394 153.207 100.615 151.505 102.051 149.738C107.173 143.437 116.27 135.517 119.778 128.425C126.415 115.011 104.204 107.923 102.422 124.865L96.6553 124.928L97.7289 124.459C97.9868 123.338 98.2035 120.387 97.5593 119.435Z"
      fill="#070707"
      fill-opacity="0.65"
    />
<path
      d="M209.301 26.5332C216.002 27.3726 221.114 32.7485 223.387 38.8433L223.123 39.2223C221.235 39.4198 219.097 39.2198 217.176 39.2259C214.641 35.4447 212.109 32.2167 207.327 31.4556C192.853 29.1517 185.074 45.8881 192.693 56.899C194.854 60.0631 198.195 62.227 201.967 62.905C205.627 63.5671 208.908 62.9302 212.117 61.009C214.027 59.8655 216.571 55.9423 217.141 55.5714L217.485 56.0843C220.009 56.5237 221.875 55.7666 223.16 56.026C218.779 66.0267 209.697 70.3305 199.023 68.0637C194.045 66.9652 189.716 63.9151 187.006 59.5971C183.805 54.6056 183.013 47.7471 184.267 42.0403C184.291 43.0272 184.04 43.9482 184.559 44.6502C185.233 44.1561 185.142 41.0849 184.635 40.4061C185.611 34.2759 192.525 27.6212 198.639 26.5444C200.022 27.0935 207.973 27.1484 209.301 26.5332Z"
      fill="#070707"
      fill-opacity="0.65"
    />
<path
      d="M471.211 11.582C473.189 11.816 475.133 11.6833 477.12 11.6017C477.094 16.5292 477.101 21.4569 477.143 26.3844C480.381 26.4872 483.461 26.6141 486.701 26.4823C486.585 28.4772 486.522 29.8278 486.629 31.814C484.741 31.7424 478.95 31.3243 477.464 32.2868C476.775 35.0727 477.142 49.1889 477.113 53.0316C477.09 56.1926 476.961 64.8477 477.158 67.9833C475.292 67.8355 473.183 67.6618 471.323 67.9416C471.16 60.3079 471.114 52.6722 471.186 45.0371C471.188 42.9755 471.523 32.9644 470.577 31.9818C468.79 31.3232 465.691 31.6192 463.694 31.7141C464.018 30.9664 463.764 28.4032 464.219 26.5673C466.277 26.7152 469.079 26.5887 471.133 26.3392C471.263 21.3632 471.138 16.5228 471.211 11.582Z"
      fill="#070707"
      fill-opacity="0.65"
    />
<path
      d="M151.312 11.6937L151.689 11.8495C152.17 15.265 151.536 22.0065 151.995 26.3921C154.898 26.5599 158.702 26.6427 161.626 26.5109C161.527 28.2829 161.394 30.0739 161.452 31.8465C159.575 31.7322 153.794 31.3373 152.3 32.0322C151.302 34.8623 151.598 62.9659 151.727 67.8883C149.899 67.7804 148.712 67.7941 146.88 67.8792C147.269 67.3266 147.204 65.1054 147.136 64.451C146.713 60.3501 147.512 34.7344 146.551 33.2178C146.615 35.1548 146.256 40.0277 146.256 42.6098L146.267 58.9716C146.273 61.3424 146.513 65.3279 146.085 67.483C145.816 63.7597 145.954 58.4772 145.953 54.6411C145.969 47.1081 145.947 39.5751 145.887 32.0424C142.626 31.5555 140.825 31.5837 137.533 31.8278C137.631 30.2308 137.597 28.2764 137.608 26.6491C139.722 26.6642 143.935 26.6085 145.917 26.3344C145.945 23.8745 145.715 13.4251 146.198 11.6133C146.259 16.0662 146.26 20.0614 146.56 24.5128C147.208 20.0391 146.94 17.3373 147.169 13.1043C147.324 13.8333 147.503 17.8423 147.569 18.8087C147.812 17.7715 147.283 16.8032 147.962 15.7373L148.169 15.7593L148.304 16.7728C148.647 14.0736 147.586 13.6583 148.085 12.1027C148.651 11.7576 150.27 11.8557 151.312 11.6937Z"
      fill="#070707"
      fill-opacity="0.65"
    />
<path
      d="M471.331 110.283L477.727 110.211C477.544 124.708 477.852 139.259 477.695 153.762C477.686 154.676 477.63 156.01 477.808 156.858C476.738 157.044 473.948 157.234 472.757 157.068C472.36 157.013 472.182 156.317 472.012 155.9C471.879 156.084 471.848 156.78 471.415 157.407C470.944 146.277 471.608 134.183 471.349 122.991C471.271 119.591 471.626 113.327 471.331 110.283Z"
      fill="#070707"
      fill-opacity="0.65"
    />
<path
      d="M203.983 244.299C207.327 244.322 211.2 244.429 214.488 244.209C214.475 247.804 214.436 251.399 214.371 254.993C211.11 254.814 207.218 254.739 203.989 255.01C203.905 251.543 203.98 247.788 203.983 244.299Z"
      fill="#070707"
    />
<path
      d="M473.764 88.4909C475.302 88.2421 476.854 88.8431 477.823 90.0626C478.792 91.282 479.027 92.9297 478.438 94.3714C477.848 95.8131 476.526 96.8239 474.98 97.0149C472.651 97.3025 470.521 95.6724 470.189 93.3493C469.858 91.0262 471.448 88.8656 473.764 88.4909Z"
      fill="#070707"
      fill-opacity="0.65"
    />
<path
      d="M146.085 67.484C146.513 65.3289 146.273 61.3433 146.267 58.9725L146.256 42.6107C146.256 40.0286 146.615 35.1558 146.551 33.2188C147.512 34.7354 146.713 60.351 147.136 64.4519C147.204 65.1063 147.269 67.3275 146.88 67.8801C146.242 67.8081 146.451 67.9273 146.085 67.484Z"
      fill="#070707"
      fill-opacity="0.65"
    />
<path
      d="M309.084 67.4878C309.867 63.9419 308.43 45.6109 309.799 44.2422C310.294 49.0097 309.982 61.8001 310.086 67.4106C309.939 67.6026 309.812 67.7684 309.704 67.9079C309.319 67.8086 309.349 67.7933 309.084 67.4878Z"
      fill="#070707"
      fill-opacity="0.65"
    />
<path
      d="M451.191 152.145L451.852 151.455C452.572 152.456 452.196 155.735 452.204 157.156C453.291 157.12 456.461 156.952 457.428 157.063L457.402 157.686C456.634 158.348 452.564 158.116 451.104 158.175C451.145 156.165 451.173 154.155 451.191 152.145Z"
      fill="#070707"
      fill-opacity="0.65"
    />
<path
      d="M146.198 11.6133L147.094 11.9821C147.3 12.5011 147.273 12.5358 147.169 13.1043C146.94 17.3373 147.208 20.0391 146.56 24.5128C146.26 20.0614 146.259 16.0662 146.198 11.6133Z"
      fill="#070707"
      fill-opacity="0.65"
    />
<path
      d="M198.639 26.5434C202.053 25.7538 205.892 25.6754 209.301 26.5322C207.973 27.1474 200.022 27.0925 198.639 26.5434Z"
      fill="#070707"
      fill-opacity="0.65"
    />
<path
      d="M471.415 157.407C471.848 156.78 471.879 156.084 472.012 155.9C472.182 156.317 472.36 157.013 472.757 157.068C473.948 157.234 476.738 157.044 477.808 156.858L477.697 157.691C476.812 158.435 472.601 158.273 471.491 157.897L471.415 157.407Z"
      fill="#070707"
      fill-opacity="0.65"
    />
<path
      d="M125.525 36.2996C128.162 35.9001 130.45 36.3178 131.742 36.0078L131.654 36.8416C130.851 37.4759 128.56 37.4205 127.536 37.2763C126.168 37.0838 126.278 37.2223 125.525 36.2996Z"
      fill="#070707"
      fill-opacity="0.65"
    />
<path
      d="M146.198 11.6142C146.565 11.4216 150.593 11.6671 151.312 11.6946C150.27 11.8566 148.651 11.7585 148.085 12.1036C147.586 13.6592 148.647 14.0745 148.304 16.7737L148.169 15.7602L147.962 15.7382C147.283 16.8041 147.812 17.7724 147.569 18.8096C147.503 17.8432 147.324 13.8342 147.169 13.1052C147.273 12.5367 147.3 12.502 147.094 11.983L146.198 11.6142Z"
      fill="#070707"
      fill-opacity="0.65"
    />
<path
      d="M417.174 83.6488C418.799 83.2081 420.875 82.8053 422.444 83.6932L423.063 83.3492L422.96 83.9684C422.117 84.5377 418.533 84.3233 417.465 84.1764L417.174 83.6488Z"
      fill="#070707"
      fill-opacity="0.65"
    />
<path
      d="M356.429 55.5822C357.717 55.1479 360.994 55.1274 362.357 55.3709L362.637 55.6278C362.418 56.101 362.003 56.8758 361.964 57.359C361.281 56.1306 361.233 55.9741 359.732 56.159C358.363 56.3277 357.675 56.0882 356.429 55.5822Z"
      fill="#070707"
      fill-opacity="0.65"
    />
<path
      d="M463.694 31.7152C463.512 31.706 463.18 31.6023 462.989 31.5518C462.493 30.3361 462.476 27.6307 463.343 26.6027L464.219 26.5684C463.764 28.4043 464.018 30.9675 463.694 31.7152Z"
      fill="#070707"
      fill-opacity="0.65"
    />
<path
      d="M217.141 55.5705C218.294 55.0184 221.584 55.1579 222.921 55.2961L223.276 55.5668L223.16 56.0251C221.875 55.7657 220.009 56.5228 217.485 56.0834L217.141 55.5705Z"
      fill="#070707"
      fill-opacity="0.65"
    />
<path
      d="M5.4082 10.8508L5.51336 10.366C6.28709 9.69822 10.7882 9.6205 11.6487 10.354L10.9932 10.9682C10.1948 10.9196 5.54901 10.9131 5.4082 10.8508Z"
      fill="#070707"
      fill-opacity="0.65"
    />
<path
      d="M97.5597 119.436C98.2039 120.388 97.9872 123.339 97.7293 124.46L96.6557 124.929C96.1617 123.893 97.15 120.53 97.5597 119.436Z"
      fill="#070707"
      fill-opacity="0.65"
    />
<path
      d="M6.68909 154.258C7.71489 155.606 6.37351 156.411 7.60577 158.589C7.20892 158.949 6.96361 159.099 6.51291 159.394C5.27011 158.436 6.0048 155.432 6.68909 154.258Z"
      fill="#070707"
      fill-opacity="0.65"
    />
<path
      d="M69.0983 26.2227C70.6317 26.2349 72.8315 26.6841 74.6274 26.8348C74.237 26.8726 64.6587 27.3287 64.7695 27.3479C66.5893 26.6199 67.1746 26.5272 69.0983 26.2227Z"
      fill="#070707"
      fill-opacity="0.65"
    />
<path
      d="M88.0117 56.2785C89.0605 56.2459 90.9471 56.079 91.8559 56.4198L91.9595 56.7823L91.5594 57.2912C90.1508 56.8938 87.9986 57.2531 86.9336 56.6756L88.0117 56.2785Z"
      fill="#070707"
      fill-opacity="0.65"
    />
<path
      d="M35.4759 159.081C34.7111 158.796 33.6598 158.742 32.8262 158.66C33.3827 158.133 36.8942 158.06 37.6294 158.577L37.2904 159.157C36.4608 159.289 36.267 159.231 35.4759 159.081Z"
      fill="#070707"
      fill-opacity="0.65"
    />
<path
      d="M128.59 159.154C127.707 159.011 127.076 158.885 126.209 158.665L126.243 158.473C127.399 158.271 127.873 158.207 128.928 157.694L129.143 157.588C129.149 158.542 129.322 158.576 128.818 159.158L128.59 159.154Z"
      fill="#070707"
      fill-opacity="0.65"
    />
<path
      d="M184.635 40.4062C185.142 41.085 185.233 44.1562 184.559 44.6503C184.04 43.9483 184.291 43.0273 184.267 42.0404C184.305 41.67 184.539 40.8095 184.635 40.4062Z"
      fill="#070707"
      fill-opacity="0.65"
    />
<path
      d="M243.964 258C239.603 256.72 236.475 256.103 232.596 253.501C216.184 242.495 216.945 215.072 234.749 205.416C240.655 202.277 247.574 201.636 253.957 203.637C259.882 205.433 260.382 206.991 264.888 210.284C263.986 207.456 263.787 206.71 263.65 203.71C267.198 203.637 270.747 203.606 274.296 203.619C274.118 208.787 274.246 214.536 274.247 219.746C274.287 231.987 274.262 244.228 274.169 256.469C271.146 256.354 268.293 256.408 265.279 256.578C264.867 256.601 264.377 256.238 264.085 255.95C263.314 254.359 264.375 251.686 264.886 249.954C261.741 252.515 259.045 254.998 255.146 256.342C253.918 256.766 250.111 257.494 249.341 258H243.964ZM250.664 247.587C271.19 243.196 267.813 210.474 245.721 212.625C224.197 215.956 228.048 250.992 250.664 247.587Z"
      fill="#070707"
    />
<path
      d="M395.111 258C392.796 257.263 390.619 256.923 388.239 256.098C381.814 253.815 376.513 249.147 373.435 243.062C369.99 236.364 369.483 228.207 371.811 221.07C374.014 214.303 378.788 208.674 385.103 205.394C391.422 202.188 399.286 201.658 406.003 203.89C412.853 206.16 418.501 211.093 421.673 217.576C428.376 231.123 422.829 248.451 409.355 255.12C406.627 256.47 402.382 256.906 400.34 258H395.111ZM400.146 247.648C420.642 243.217 417.486 210.465 395.17 212.623C373.764 216.33 377.494 250.461 400.146 247.648Z"
      fill="#070707"
    />
<path
      d="M487.036 204.131C490.538 204.151 494.045 204.205 497.543 204.055L497.547 213.732C500.352 213.542 504.456 213.673 507.37 213.691C507.259 216.866 507.303 220.345 507.284 223.544C509.767 223.433 514.858 223.227 517 223.964V233.904C515.099 234.252 509.137 234.1 507.144 233.938C507.101 237.442 507.136 241 507.14 244.508C503.948 244.399 500.801 244.642 497.602 244.378C497.458 247.791 497.483 251.613 497.43 255.053C494.167 254.798 490.326 254.679 487.07 254.947C486.947 251.604 487.035 247.684 487.025 244.296C489.907 244.361 493.889 244.437 496.685 244.176C496.735 241.072 496.619 237.154 496.487 234.041C499.236 233.831 503.301 233.927 506.148 233.924C506.128 230.711 506.179 227.498 506.301 224.287C503.099 224.216 499.897 224.222 496.696 224.306C496.931 221.883 496.834 217.452 496.915 214.8C493.754 214.738 490.203 214.593 487.083 214.872C486.924 211.484 487.021 207.563 487.036 204.131Z"
      fill="#070707"
    />
</g>
<defs>
<clipPath id="clip0_1959_224">
<rect width="517" height="258" fill="white" />
</clipPath>
</defs>
</svg>
